<svg version="1.1" xmlns="http://www.w3.org/2000/svg" xmlns:xlink="http://www.w3.org/1999/xlink" width="400" height="200" viewBox="0 0 400 200">
  <style>
    .blue {
      fill: #00a9cc;
    }
    .white {
      fill: #fff;
    }
  </style>

  <g id="info-icon">
    <circle class="blue" cx="18" cy="18" r="8"/>
    <path class="white" d="M16.39,23.06V23l.31-1.75.48-3.47c0-.14,0-.23-.13-.27l-.64-.22.13-1h2.75l-.77,5.46c0,.21,0,.23.18.26l.62.09-.13,1Zm.9-8.79a1.23,1.23,0,0,1,1.12-1.33h.21a.9.9,0,0,1,1,1,1.26,1.26,0,0,1-1.21,1.31h-.12a.9.9,0,0,1-1-1Z"/>
  </g>
  <g id="next-arrow">
    <path class="white" d="M38.5,10l5,5-5,5"/>
  </g>
  <g id="reset-arrow">
    <path class="white" d="M57.47,11.47,56,10v4h4l-1.48-1.48a3.52,3.52,0,1,1-.72,3.91L56.43,17a5,5,0,1,0,1-5.54Z"/>
  </g>
</svg>
