<svg version="1.1" xmlns="http://www.w3.org/2000/svg" xmlns:xlink="http://www.w3.org/1999/xlink" width="400" height="200" viewBox="0 0 400 200">
  <style>
    #info-icon circle {
      fill: #00a9cc;
    }
    #info-icon path {
      fill: #fff;
    }
  </style>

  <g id="info-icon">
    <circle cx="8" cy="8" r="8"/>
    <path d="M6.39,13.06l0-.07.31-1.75.48-3.47c0-.14,0-.23-.13-.27l-.64-.22.13-1H9.29l-.77,5.46c0,.21,0,.23.18.26l.62.09-.13,1Zm.9-8.79A1.23,1.23,0,0,1,8.62,2.94a.9.9,0,0,1,1,1A1.26,1.26,0,0,1,8.29,5.25.9.9,0,0,1,7.28,4.28Z"/>
  </g>
</svg>
